<?xml version="1.0" encoding="UTF-8"?>
<!DOCTYPE svg PUBLIC "-//W3C//DTD SVG 1.1//EN" "http://www.w3.org/Graphics/SVG/1.1/DTD/svg11.dtd">
<!-- Creator: CorelDRAW X6 -->
<svg xmlns="http://www.w3.org/2000/svg" xml:space="preserve" width="85.804mm" height="12.0903mm" version="1.1" shape-rendering="geometricPrecision" text-rendering="geometricPrecision" image-rendering="optimizeQuality" fill-rule="evenodd" clip-rule="evenodd"
viewBox="0 0 330015 46501"
 xmlns:xlink="http://www.w3.org/1999/xlink">
 <g id="Layer_x0020_1">
  <metadata id="CorelCorpID_0Corel-Layer"/>
  <path fill="#FEFEFE" fill-rule="nonzero" d="M19140 46501c12063,0 17994,-6200 17994,-14422 0,-16781 -25811,-11996 -25811,-19072 0,-2696 2291,-4448 6335,-4448 4583,0 9435,1550 13074,4920l5324 -7143c-4448,-4111 -10378,-6268 -17522,-6268 -10581,0 -17050,6200 -17050,13681 0,16916 25879,11457 25879,19274 0,2628 -2493,4987 -7817,4987 -6200,0 -11120,-2830 -14287,-6133l-5257 7480c4246,4246 10446,7144 19140,7144zm46042 0c9839,0 15568,-5459 18735,-11053l-8222 -3976c-1887,3639 -5931,6537 -10513,6537 -8222,0 -14152,-6268 -14152,-14759 0,-8491 5930,-14759 14152,-14759 4583,0 8626,2898 10513,6537l8222 -4043c-3168,-5661 -8896,-10985 -18735,-10985 -13546,0 -23992,9368 -23992,23250 0,13816 10446,23251 23992,23251zm60733 -809l-10176 -17118c4852,-1146 9907,-5459 9907,-13344 0,-8357 -5796,-14489 -15163,-14489l-21027 0 0 44951 9570 0 0 -15972 7009 0 8828 15972 11052 0zm-16781 -24396l-10109 0 0 -12131 10109 0c3774,0 6672,2292 6672,5998 0,3841 -2898,6133 -6672,6133zm43750 25205c13681,0 20285,-7683 20285,-18803l0 -26957 -9772 0 0 26687c0,6268 -3572,10581 -10513,10581 -6942,0 -10581,-4313 -10581,-10581l0 -26687 -9704 0 0 26957c0,11120 6604,18803 20285,18803zm77716 -809l0 -44951 -13478 0 -10918 28103 -10917 -28103 -13411 0 0 44951 9570 0 0 -32416 12670 32416 4178 0 12670 -32416 0 32416 9637 0z"/>
  <polygon fill="#FEFEFE" fill-rule="nonzero" points="279868,37268 258411,37268 258411,27025 287116,27025 290216,22644 287392,18601 258411,18601 258411,9166 280802,9166 274919,742 248841,742 248841,45692 273907,45692 "/>
  <polygon fill="#FEFEFE" fill-rule="nonzero" points="330015,45692 313706,22577 329004,742 317480,742 307304,16107 296993,742 285604,742 300902,22644 284592,45692 295982,45692 307304,29248 318559,45692 "/>
 </g>
</svg>
