<?xml version="1.0" encoding="UTF-8"?>
<!DOCTYPE svg PUBLIC "-//W3C//DTD SVG 1.1//EN" "http://www.w3.org/Graphics/SVG/1.1/DTD/svg11.dtd">
<!-- Creator: CorelDRAW X6 -->
<svg xmlns="http://www.w3.org/2000/svg" xml:space="preserve" width="88.9163mm" height="12.9954mm" version="1.1" shape-rendering="geometricPrecision" text-rendering="geometricPrecision" image-rendering="optimizeQuality" fill-rule="evenodd" clip-rule="evenodd"
viewBox="0 0 353912 51725"
 xmlns:xlink="http://www.w3.org/1999/xlink">
 <g id="Layer_x0020_1">
  <metadata id="CorelCorpID_0Corel-Layer"/>
  <path fill="#FEFEFE" fill-rule="nonzero" d="M22189 51725c13419,0 20840,-6672 20840,-16717 0,-18591 -28262,-13943 -28262,-20090 0,-2174 1649,-3449 5397,-3449 4948,0 10420,1724 14618,5248l7047 -9670c-5322,-4573 -12294,-6971 -20315,-6971 -12819,0 -19865,7496 -19865,15892 0,19266 28261,13794 28261,20391 0,2474 -2699,3973 -7047,3973 -6897,0 -12444,-2999 -16042,-6597l-6822 10045c5023,4723 12069,7946 22189,7946zm51140 0c12069,0 18591,-7047 21815,-13419l-11095 -5247c-1649,3973 -5922,7272 -10720,7272 -8171,0 -13943,-6297 -13943,-14468 0,-8246 5772,-14468 13943,-14468 4798,0 9071,3298 10720,7272l11095 -5322c-3224,-6522 -9745,-13344 -21815,-13344 -15367,0 -27062,10420 -27062,25863 0,15368 11694,25863 27062,25863zm69807 -900l-10195 -18366c4723,-1649 9970,-6297 9970,-14993 0,-9296 -6297,-16642 -17391,-16642l-25038 0 0 50001 12894 0 0 -16792 6597 0 8396 16792 14768 0zm-19565 -28037l-10195 0 0 -10720 10195 0c3448,0 6222,1874 6222,5322 0,3523 -2774,5397 -6222,5397zm49941 28936c16043,0 23539,-8771 23539,-21215l0 -29686 -13044 0 0 29311c0,5922 -3598,10195 -10495,10195 -6971,0 -10570,-4273 -10570,-10195l0 -29311 -13119 0 0 29761c0,12294 7647,21140 23689,21140zm88782 -50901l-17626 0 -10420 27587 -10495 -27587 -17916 0 0 50001 12894 0 0 -33059 12669 33059 5697 0 12594 -33059 0 33059 12603 0 0 -50001z"/>
  <polygon fill="#FEFEFE" fill-rule="nonzero" points="317790,50901 336266,50901 327028,36964 "/>
  <polygon fill="#FEFEFE" fill-rule="nonzero" points="353912,25863 353912,50901 353912,50901 336571,25863 353912,825 353912,825 "/>
  <polygon fill="#FEFEFE" fill-rule="nonzero" points="317536,25863 300145,825 300145,825 300145,12204 276381,12204 276381,19681 299620,19681 300145,19681 300145,32044 299620,32044 276381,32044 276381,39521 300145,39521 300145,50901 300145,50901 "/>
  <polygon fill="#FEFEFE" fill-rule="nonzero" points="317790,825 336266,825 327028,14761 "/>
 </g>
</svg>
